HIERARCHY
ROOT pelvis
{
  OFFSET 0 100 0
  CHANNELS 6 Xposition Yposition Zposition Zrotation Xrotation Yrotation
  JOINT pelvis_right_femur
  {
    OFFSET -10.78128 -3.44521 -0.5502486
    CHANNELS 3 Zrotation Xrotation Yrotation
    JOINT right_femur_tibia
    {
      OFFSET -0.8047443 -44.0398 -0.1307829
      CHANNELS 3 Zrotation Xrotation Yrotation
      JOINT right_tibia_foot
      {
        OFFSET 3.006224 -47.83518 -5
        CHANNELS 3 Zrotation Xrotation Yrotation
        End Site
        {
          OFFSET 0 -5 15
        }
      }
    }
  }
  JOINT pelvis_left_femur
  {
    OFFSET 10.78128 -3.44521 -0.5502486
    CHANNELS 3 Zrotation Xrotation Yrotation
    JOINT left_femur_tibia
    {
      OFFSET 0.8047443 -44.0398 -0.1307829
      CHANNELS 3 Zrotation Xrotation Yrotation
      JOINT left_tibia_foot
      {
        OFFSET -4.370144 -48.10324 -4.275266
        CHANNELS 3 Zrotation Xrotation Yrotation
        End Site
        {
          OFFSET 0 -5 15
        }
      }
    }
  }
  JOINT pelvis_spine1
  {
    OFFSET 0 6.468898 -3.129235
    CHANNELS 3 Zrotation Xrotation Yrotation
    JOINT spine1
    {
      OFFSET 0 23.15396 4.99043
      CHANNELS 3 Zrotation Xrotation Yrotation
      JOINT spine2
      {
        OFFSET 0 20.79997 -5.064912
        CHANNELS 3 Zrotation Xrotation Yrotation
        JOINT neck
        {
          OFFSET 0 14.38658 9.616178
          CHANNELS 3 Zrotation Xrotation Yrotation
          End Site
          {
            OFFSET 0 20 0
          }
        }
      }
      JOINT right_manubrium
      {
        OFFSET -5.722621 16.35077 3.967754
        CHANNELS 3 Zrotation Xrotation Yrotation
        JOINT right_clavicle
        {
          OFFSET -13.16364 1.694482 -4.693211
          CHANNELS 3 Zrotation Xrotation Yrotation
          JOINT right_humerus
          {
            OFFSET -28.5034 -0.3100689 -2.792744
            CHANNELS 3 Zrotation Xrotation Yrotation
            JOINT right_radius
            {
              OFFSET -25.15693 0.02248979 -1.271978
              CHANNELS 3 Zrotation Xrotation Yrotation
              End Site
              {
                OFFSET -15 0 0
              }
            }
          }
        }
      }
      JOINT left_manubrium
      {
        OFFSET 5.722621 16.35077 3.967754
        CHANNELS 3 Zrotation Xrotation Yrotation
        JOINT left_clavicle
        {
          OFFSET 13.16364 1.694482 -4.693211
          CHANNELS 3 Zrotation Xrotation Yrotation
          JOINT left_humerus
          {
            OFFSET 29.39168 -1.063119 -2.237045
            CHANNELS 3 Zrotation Xrotation Yrotation
            JOINT left_radius
            {
              OFFSET 24.59957 -0.9528479 0.9047498
              CHANNELS 3 Zrotation Xrotation Yrotation
              End Site
              {
                OFFSET 15 -0 -0
              }
            }
          }
        }
      }
    }
  }
}
MOTION
Frames: 21
Frame Time: 0.0416666666667
-737.5209 117.9657 2058.526 4.087101 3.430652 -65.78719 8.692576 -36.28118 7.907074 -0 19.56929 -0 -5.946233 -7.128335 -2.668274 -5.742033 13.20285 -19.82468 -0 9.753049 -0 4.899487 -23.61911 20.95386 -1.472004 -0.8102986 3.03725 2.117496 10.21822 -8.267361 0.9953372 20.30025 8.469267 4.94724 -24.62114 8.947798 2.793852 -17.47015 11.92962 90.30835 34.51128 -20.85341 -0 0 10.01974 -14.92887 10.7764 5.928628 8.538882 -23.77176 -1.711019 -85.56178 13.74001 10.96747 0 0 -23.87082 17.1709 13.1117 -10.17341
-741.2965 117.6337 2060.363 4.114633 3.621435 -65.26158 8.265356 -36.98689 6.32743 -0 15.368 -0 -5.719287 -4.304753 -2.361993 -5.364501 14.22455 -18.1993 -0 12.20468 -0 1.958339 -23.65407 18.015 -1.436757 -0.7968559 3.027976 2.247424 10.13496 -8.339863 0.9976465 20.21871 8.507095 4.868681 -24.90368 9.102619 2.841209 -17.42439 11.94283 90.37772 34.6689 -21.06289 -0 0 9.836245 -14.48353 10.80708 5.856392 8.464574 -23.69025 -1.603423 -85.54359 14.01512 10.98724 0 0 -24.23066 17.08532 12.96331 -9.933347
-746.1479 117.298 2062.598 3.471878 3.43189 -64.47896 7.357667 -35.66178 4.196318 -0 12.32773 -0 -5.554687 -1.288855 -2.254709 -4.788674 16.10273 -15.93768 -0 16.31248 -0 -2.314567 -22.15065 14.1483 -1.396937 -0.7756166 3.058244 2.335931 10.10683 -8.385855 0.9960977 20.19337 8.495188 4.779444 -25.08964 9.188172 2.803318 -17.43125 11.96144 90.53091 34.77799 -21.24534 -0 0 9.641437 -14.1609 10.78035 5.782562 8.338075 -23.64659 -1.596718 -85.50829 14.18325 11.05231 0 0 -24.54331 17.03884 12.83028 -9.786282
-751.9433 117.3442 2065.163 2.361791 3.445147 -63.77869 7.486242 -32.16695 3.41738 -0 13.01719 -0 -5.782387 0.0546292 -2.604564 -3.894853 17.42592 -13.61828 -0 23.68568 -0 -6.570609 -17.87589 10.79077 -1.348192 -0.7417482 3.144551 2.365134 10.15804 -8.395196 0.9922672 20.24739 8.412526 4.668057 -25.15016 9.185121 2.630098 -17.51746 11.98724 90.82373 34.81796 -21.39568 -0 0 9.417588 -14.01605 10.6758 5.706361 8.135173 -23.65543 -1.727101 -85.43712 14.19711 11.17356 0 0 -24.81074 17.05114 12.71792 -9.777206
-757.8139 118.1736 2067.805 1.575744 4.209854 -63.67442 8.992766 -27.48978 4.509189 -0 16.92497 -0 -7.08258 -2.399793 -2.819948 -3.007248 14.65119 -12.34227 -0 34.59345 -0 -8.61989 -11.5396 9.309669 -1.295 -0.7021961 3.311661 2.313206 10.31201 -8.352568 0.9880657 20.40871 8.237207 4.520411 -25.05284 9.079179 2.28066 -17.74019 12.02105 91.27115 34.75437 -21.46258 -0 0 9.228491 -14.10277 10.46952 5.622472 7.830138 -23.71158 -2.01266 -85.36393 14.03382 11.4405 0 0 -24.90715 17.13436 12.65716 -9.937028
-763.2865 119.535 2070.367 1.0324 4.244564 -64.07483 9.37626 -22.87171 4.785187 -0 18.27939 -0 -8.330769 -5.670884 -2.739882 -2.901436 9.243803 -11.52018 -0 45.06075 -0 -8.603906 -7.13007 9.053963 -1.265493 -0.6895168 3.564316 2.170749 10.55378 -8.248092 0.9854959 20.67465 7.980417 4.348635 -24.78427 8.885038 1.812828 -18.15484 12.05719 91.72331 34.57644 -21.31745 -0 0 9.30481 -14.42119 10.18041 5.518153 7.455574 -23.76346 -2.383336 -85.42271 13.73855 12.0181 0 0 -24.48877 17.29228 12.7324 -10.26642
-768.5721 121.1426 2072.875 0.05132825 3.076215 -64.69211 8.579132 -17.86744 4.301227 -0 17.03032 -0 -8.323609 -7.230459 -2.858933 -3.201162 4.326448 -10.44685 -0 53.60765 -0 -8.057091 -5.005663 9.647247 -1.273973 -0.7263533 3.874 1.949557 10.8526 -8.091251 0.9825546 21.00555 7.669435 4.191566 -24.33376 8.605243 1.325969 -18.74488 12.08971 92.02109 34.28399 -20.90369 -0 0 9.793551 -14.94285 9.865704 5.385831 7.082645 -23.79163 -2.780815 -85.68964 13.32621 12.94649 0 0 -23.37913 17.52437 12.99839 -10.75652
-773.5937 122.9203 2075.283 -0.7383494 1.62335 -65.29914 7.243219 -12.0279 3.301432 -0 14.67521 -0 -8.494611 -8.416509 -2.469126 -3.543784 -1.791648 -9.710878 -0 60.239 -0 -7.435826 -3.813118 10.16435 -1.302609 -0.807851 4.229927 1.693332 11.1894 -7.906158 0.9690425 21.35585 7.313103 4.052204 -23.7341 8.236672 0.8719634 -19.47002 12.12643 92.13597 33.87977 -20.2808 -0 0 10.63886 -15.56391 9.551868 5.238876 6.70315 -23.79922 -3.21294 -86.15449 12.83595 14.22226 0 0 -21.6902 17.75523 13.39143 -11.26664
-778.3836 124.6232 2077.569 -1.49411 0.007359285 -65.76483 5.742208 -6.231115 2.233859 -0 11.99373 -0 -8.747521 -8.919214 -1.906892 -3.624192 -7.798505 -8.962532 -0 63.32691 -0 -6.629733 -3.548439 10.85298 -1.348528 -0.9383329 4.644865 1.450322 11.53224 -7.71122 0.9321511 21.68076 6.927711 3.919497 -23.04352 7.801476 0.5190046 -20.32154 12.17837 92.00673 33.41275 -19.46148 -0 0 11.82974 -16.13621 9.251361 5.099574 6.285258 -23.75117 -3.648566 -86.85233 12.3516 15.938 0 0 -19.4448 17.88362 13.84202 -11.59761
-783.0159 126.0312 2079.74 -2.426723 -1.459107 -66.12946 4.659733 -1.183617 1.647395 -0 9.868216 -0 -8.732761 -9.015621 -1.495252 -3.111023 -12.83943 -7.849708 -0 62.41297 -0 -5.653611 -3.793259 12.11215 -1.403057 -1.119298 5.119645 1.242276 11.86885 -7.515651 0.8632619 21.94445 6.527291 3.795559 -22.28208 7.30398 0.2896304 -21.28278 12.24864 91.63445 32.86679 -18.48012 -0 0 13.31075 -16.60628 8.975435 5.000129 5.8229 -23.65768 -4.091742 -87.76404 11.87436 18.09338 0 0 -16.77012 17.82796 14.29691 -11.60615
-787.6105 126.9813 2081.831 -3.928617 -2.585317 -66.59821 4.458785 2.84323 1.957856 -0 8.958818 -0 -7.998444 -9.151966 -1.761408 -1.888382 -16.04348 -6.272397 -0 58.00981 -0 -4.653949 -4.119771 14.34953 -1.460331 -1.357396 5.655103 1.08055 12.193 -7.323058 0.7542856 22.11559 6.126015 3.685794 -21.45611 6.745778 0.1973744 -22.34711 12.33817 91.0291 32.20157 -17.36537 -0 0 15.04372 -16.93894 8.731649 4.969211 5.317023 -23.53728 -4.552457 -88.87412 11.38298 20.6903 0 0 -13.79321 17.51364 14.72099 -11.16296
-792.2164 127.4168 2083.885 -5.542508 -3.164338 -67.25858 4.913123 6.119033 2.443683 -0 8.724108 -0 -7.274414 -9.914103 -2.352769 -0.3037557 -18.23163 -4.670303 -0 50.83271 -0 -3.704202 -4.397491 16.7768 -1.505716 -1.659102 6.256005 0.9653387 12.52007 -7.129721 0.5921694 22.16228 5.729884 3.605611 -20.53251 6.098642 0.2456219 -23.52039 12.4509 90.20986 31.31138 -16.14284 -0 0 17.0144 -17.1345 8.531012 5.043429 4.766881 -23.43372 -5.081415 -90.17013 10.81316 23.74752 0 0 -10.64877 16.85107 15.07486 -10.12326
-796.8463 127.3407 2085.953 -6.587628 -3.081438 -68.02201 5.591807 8.947658 2.315758 -0 8.470723 -0 -7.354369 -11.43895 -2.642091 1.339642 -20.39399 -3.354883 -0 41.45491 -0 -2.810661 -4.611754 18.48583 -1.508165 -2.008674 6.90547 0.9021776 12.86747 -6.939261 0.3688048 22.04193 5.355596 3.572576 -19.51576 5.352117 0.4283132 -24.76618 12.59223 89.24741 30.10149 -14.90107 -0 0 19.13649 -17.18281 8.416276 5.26102 4.183947 -23.40436 -5.726306 -91.5782 10.11671 27.16014 0 0 -7.648932 15.77406 15.26763 -8.376036
-801.5341 126.8494 2088.118 -6.722024 -2.386255 -68.76656 6.162218 11.60399 1.592381 -0 8.175532 -0 -8.126899 -13.59781 -2.434775 2.869725 -22.76284 -2.416538 -0 31.05348 -0 -2.148236 -4.571347 19.18777 -1.421659 -2.335984 7.535511 0.88645 13.25027 -6.764625 0.09667535 21.74198 5.035854 3.618473 -18.46726 4.529687 0.7032548 -25.94338 12.7623 88.28903 28.58783 -13.80931 -0 0 21.18594 -17.15085 8.469039 5.636058 3.62657 -23.52092 -6.505654 -92.8987 9.296237 30.49951 0 0 -5.293243 14.38728 15.15976 -6.10402
-806.3568 126.1405 2090.47 -6.155151 -1.429271 -69.45219 6.334141 14.28454 0.9231601 -0 8.331211 -0 -8.783084 -15.87332 -2.050165 3.988179 -24.72207 -1.973003 -0 21.7174 -0 -1.984779 -4.148249 19.2077 -1.21947 -2.539763 8.052632 0.8931836 13.66472 -6.6205 -0.1838743 21.33613 4.799841 3.773377 -17.49253 3.695228 0.9873581 -26.85144 12.94639 87.4848 26.98546 -13.02183 -0 0 22.88906 -17.21433 8.747941 6.113084 3.188948 -23.81735 -7.371296 -93.89839 8.4536 33.13268 0 0 -3.91396 13.04497 14.67509 -3.91999
-811.3651 125.3713 2093.033 -5.648727 -0.7972602 -70.12081 5.983511 16.88171 0.6908589 -0 9.292607 -0 -8.868042 -17.40525 -1.862094 4.302631 -25.4111 -2.290029 -0 15.32213 -0 -2.392316 -3.702079 19.10591 -0.935282 -2.576526 8.392555 0.8866423 14.07454 -6.511714 -0.426075 20.96303 4.660992 4.043436 -16.67641 2.930786 1.218531 -27.34641 13.11129 86.89545 25.58806 -12.59737 -0 0 24.06103 -17.52485 9.189784 6.575933 2.95594 -24.25923 -8.226194 -94.48145 7.746228 34.62668 0 0 -3.418695 12.12386 13.93459 -2.466755
-816.5164 124.5776 2095.734 -5.881307 -0.839614 -70.81305 5.275073 18.98577 0.5671799 -0 10.87697 -0 -8.719731 -17.69026 -1.904249 3.719348 -24.49246 -3.485487 -0 12.00386 -0 -3.156577 -3.833028 19.17643 -0.6549607 -2.500673 8.552566 0.8462823 14.42157 -6.43132 -0.6052739 20.72474 4.615898 4.38782 -16.04689 2.308612 1.397895 -27.43472 13.22407 86.5045 24.56699 -12.49384 -0 0 24.67275 -18.0333 9.6185 6.925527 2.937098 -24.7536 -8.970383 -94.72407 7.270528 35.04385 0 0 -3.470334 11.71102 13.19882 -1.867559
-821.7335 123.7878 2098.481 -6.723733 -1.373066 -71.51766 4.409263 20.34541 0.2258152 -0 12.68124 -0 -8.658949 -17.01741 -1.97115 2.579867 -22.39056 -5.236069 -0 10.47294 -0 -4.008634 -4.634379 19.3469 -0.4503177 -2.386446 8.568457 0.7787373 14.66014 -6.375393 -0.7118603 20.6423 4.634363 4.718144 -15.62062 1.881986 1.518018 -27.24625 13.27216 86.30574 23.96389 -12.60767 -0 0 24.80445 -18.5723 9.896481 7.123782 3.060765 -25.18601 -9.519121 -94.72754 7.026418 34.73173 0 0 -3.790064 11.67871 12.67502 -1.888803
-826.9559 123.049 2101.216 -7.72989 -2.087336 -72.19516 3.44242 21.06112 -0.2938427 -0 14.56726 -0 -8.680815 -15.90653 -1.926937 1.238305 -19.66341 -7.180968 -0 9.584792 -0 -4.823601 -5.819046 19.5014 -0.3430112 -2.267672 8.477118 0.6979666 14.77827 -6.34205 -0.7489619 20.69066 4.688193 4.976416 -15.394 1.658971 1.561222 -26.90495 13.26292 86.29085 23.74615 -12.8371 -0 0 24.56697 -19.0454 9.990136 7.185341 3.255925 -25.49411 -9.840296 -94.5522 6.9627 33.98018 0 0 -4.228874 11.89039 12.42058 -2.310467
-832.1255 122.3879 2103.9 -8.679988 -2.838909 -72.80707 2.387456 21.23868 -0.884441 -0 16.59283 -0 -8.750504 -14.62049 -1.752654 -0.1453694 -16.55465 -9.17294 -0 8.906057 -0 -5.562966 -7.192741 19.61332 -0.327118 -2.148364 8.304196 0.6071418 14.78278 -6.320121 -0.7379508 20.83425 4.781801 5.181745 -15.31622 1.596999 1.553722 -26.45881 13.21008 86.39948 23.84464 -13.10908 -0 0 24.06113 -19.4549 9.915311 7.158529 3.500935 -25.68601 -9.961088 -94.2484 7.018876 32.94035 0 0 -4.707366 12.24914 12.38202 -2.979334
-837.179 121.8169 2106.499 -9.501432 -3.56981 -73.32181 1.288944 20.86488 -1.483299 -0 18.82091 -0 -8.884715 -13.24888 -1.472032 -1.488525 -13.15018 -11.14558 -0 8.358365 -0 -6.194306 -8.674524 19.69683 -0.3915009 -2.024228 8.062472 0.5029286 14.68457 -6.297206 -0.7009102 21.04305 4.931852 5.379023 -15.33069 1.64631 1.541029 -25.90855 13.12395 86.55902 24.19575 -13.38261 -0 0 23.3574 -19.83848 9.702396 7.094499 3.804339 -25.79351 -9.921023 -93.85163 7.151904 31.66505 0 0 -5.195148 12.6967 12.48512 -3.799621
